# AST/ASF file generated using VICON BodyLanguage
# -----------------------------------------------
:version 1.10
:name VICON
:units
  mass 1.0
  length 0.45
  angle deg
:documentation
   .ast/.asf automatically generated from VICON data using
   VICON BodyBuilder and BodyLanguage model FoxedUp or BRILLIANT.MOD
:root
   order TX TY TZ RX RY RZ
   axis XYZ
   position 0 0 0  
   orientation 0 0 0 
:bonedata
  begin
     id 1 
     name lhipjoint
     direction 0.606768 -0.715223 0.346827 
     length 2.41543 
     axis 0 0 0  XYZ
  end
  begin
     id 2 
     name lfemur
     direction 0.34202 -0.939693 0  
     length 7.2778  
     axis 0 0 20  XYZ
    dof rx ry rz
    limits (-160.0 20.0)
           (-70.0 70.0)
           (-60.0 70.0)
  end
  begin
     id 3 
     name ltibia
     direction 0.34202 -0.939693 0   
     length 7.61811   
     axis 0 0 20   XYZ
    dof rx
    limits (-10.0 170.0)
  end
  begin
     id 4 
     name lfoot
     direction 0.0823924 -0.226371 0.97055   
     length 2.33618   
     axis -90 7.62852e-016 20   XYZ
    dof rx rz
    limits (-45.0 90.0)
           (-70.0 20.0)
  end
  begin
     id 5 
     name ltoes
     direction 1.53554e-011 -4.21934e-011 1   
     length 1.17015   
     axis -90 7.62852e-016 20   XYZ
    dof rx
    limits (-90.0 20.0)
  end
  begin
     id 6 
     name rhipjoint
     direction -0.6077 -0.714582 0.346516   
     length 2.4176  
     axis 0 0 0  XYZ 
  end
  begin
     id 7 
     name rfemur
     direction -0.34202 -0.939693 0   
     length 7.28127   
     axis 0 0 -20   XYZ
    dof rx ry rz
    limits (-160.0 20.0)
           (-70.0 70.0)
           (-70.0 60.0)
  end
  begin
     id 8 
     name rtibia
     direction -0.34202 -0.939693 0   
     length 7.77648   
     axis 0 0 -20   XYZ
    dof rx
    limits (-10.0 170.0)
 end
 begin
     id 9 
     name rfoot
     direction -0.0809463 -0.222398 0.97159   
     length 2.37533  
     axis -90 -7.62852e-016 -20   XYZ
    dof rx rz
    limits (-45.0 90.0)
           (-20.0 70.0)
  end
  begin
     id 10 
     name rtoes
     direction -1.53568e-011 -4.21714e-011 1   
     length 1.18972   
     axis -90 -7.62852e-016 -20   XYZ
    dof rx
    limits (-90.0 20.0)
  end
  begin
     id 11 
     name lowerback
     direction 0.010968 0.991932 -0.126297   
     length 2.21698   
     axis 0 0 0   XYZ
    dof rx ry rz
    limits (-20.0 45.0)
           (-30.0 30.0)
           (-30.0 30.0)
  end
  begin
     id 12 
     name upperback
     direction 0.0167007 0.997503 -0.0686276   
     length 2.22371   
     axis 0 0 0   XYZ
    dof rx ry rz
    limits (-20.0 45.0)
           (-30.0 30.0)
           (-30.0 30.0)
  end
  begin
     id 13 
     name thorax
     direction 0.0111721 0.999885 -0.0102878   
     length 2.25242   
     axis 0 0 0   XYZ
    dof rx ry rz
    limits (-20.0 45.0)
           (-30.0 30.0)
           (-30.0 30.0)
  end
  begin
     id 14 
     name lowerneck
     direction -0.0120265 0.990428 0.137508   
     length 1.57674   
     axis 0 0 0   XYZ
    dof rx ry rz
    limits (-20.0 45.0)
           (-30.0 30.0)
           (-30.0 30.0)
  end
  begin
     id 15 
     name upperneck
     direction 0.0175669 0.998907 0.0433089   
     length 1.5618   
     axis 0 0 0   XYZ
    dof rx ry rz
    limits (-20.0 45.0)
           (-30.0 30.0)
           (-30.0 30.0)
  end
  begin
     id 16
     name head
     direction 0.00754609 0.99997 0.00185367  
     length 1.60579  
     axis 0 0 0   XYZ
    dof rx ry rz
    limits (-20.0 45.0)
           (-30.0 30.0)
           (-30.0 30.0)
  end
  begin
     id 17 
     name lclavicle
     direction 0.885866 0.429166 -0.176231  
     length 3.44967  
     axis 0 0 0   XYZ
    dof ry rz
    limits (-20.0 10.0)
           (0.0 20.0)
  end
  begin
     id 18 
     name lhumerus
     direction 1 -4.48973e-011 -1.90255e-027   
     length 5.20607   
     axis 180 -30 -90   XYZ
    dof rx ry rz
    limits (-60.0 90.0)
           (-90.0 90.0)
           (-90.0 90.0)
  end
  begin
     id 19
     name lradius
     direction 1 -4.48956e-011 9.87925e-027   
     length 3.39961   
     axis 180 -30 -90   XYZ
    dof rx
    limits (-10.0 170.0)
  end
  begin
     id 20
     name lwrist
     direction 1 -4.48985e-011 1.73247e-026   
     length 1.6998   
     axis -9.60847e-015 90 90   XYZ
    dof ry
    limits (-180.0 0.0)
 end
  begin
     id 21 
     name lhand
     direction 1 -4.48798e-011 3.46119e-026   
     length 0.519693   
     axis -2.21073e-014 90 90   XYZ
    dof rx rz
    limits (-90.0 90.0)
           (-45.0 45.0)
  end
  begin
     id 22 
     name lfingers
     direction 1 -4.48938e-011 6.92797e-026   
     length 0.41899   
     axis -4.42155e-014 90 90   XYZ
    dof rx
    limits (0.0 90.0)
  end
  begin
     id 23
     name lthumb
     direction 0.707107 -6.34952e-011 0.707107   
     length 0.601588   
     axis -90 45 6.0103e-014   XYZ
    dof rx rz
    limits (-45.0 45.0)
           (-45.0 45.0)
  end
  begin
     id 24 
     name rclavicle
     direction -0.866736 0.456792 -0.200276   
     length 3.45032  
     axis 0 0 0   XYZ 
    dof ry rz
    limits (-10.0 20.0)
           (-20.0 0.0)
  end
  begin
     id 25 
     name rhumerus
     direction -1 -4.4897e-011 8.65094e-028  
     length 5.32214   
     axis 180 30 90   XYZ
    dof rx ry rz
    limits (-90.0 60.0)
           (-90.0 90.0)
           (-90.0 90.0)
  end
  begin
     id 26 
     name rradius
     direction -1 -4.48987e-011 1.08427e-026   
     length 3.51208   
     axis 180 30 90   XYZ
    dof rx
    limits (-10.0 170.0)
  end
  begin
     id 27 
     name rwrist
     direction -1 -4.48961e-011 1.73222e-026   
     length 1.75604   
     axis -9.60847e-015 -90 -90   XYZ
    dof ry
    limits (-180.0 0.0)
  end
  begin
     id 28
     name rhand
     direction -1 -4.48895e-011 3.46314e-026   
     length 0.586681   
     axis -2.21073e-014 -90 -90   XYZ
    dof rx rz
    limits (-90.0 90.0)
           (-45.0 45.0)
  end
  begin
     id 29
     name rfingers
     direction -1 -4.48968e-011 6.92916e-026   
     length 0.472997   
     axis -4.42155e-014 -90 -90   XYZ
    dof rx
    limits (0.0 90.0)
  end
  begin
     id 30
     name rthumb
     direction -0.707107 -6.34848e-011 0.707107   
     length 0.679133   
     axis -90 -45 -6.0103e-014   XYZ
    dof rx rz
    limits (-45.0 45.0)
           (-45.0 45.0)
  end
:hierarchy
  begin
    root lhipjoint rhipjoint lowerback
    lhipjoint lfemur
    lfemur ltibia
    ltibia lfoot
    lfoot ltoes
    rhipjoint rfemur
    rfemur rtibia
    rtibia rfoot
    rfoot rtoes
    lowerback upperback
    upperback thorax
    thorax lowerneck lclavicle rclavicle
    lowerneck upperneck
    upperneck head
    lclavicle lhumerus
    lhumerus lradius
    lradius lwrist
    lwrist lhand lthumb
    lhand lfingers
    rclavicle rhumerus
    rhumerus rradius
    rradius rwrist
    rwrist rhand rthumb
    rhand rfingers
  end

#!OML:ASF H:\Dans Jumps\Project 1\Capture day 1\Session 1\subject.ASF
:FULLY-SPECIFIED
:DEGREES
19
root 0.392852 17.5603 -13.8579 5.67876 0.511905 -1.68228
lowerback -4.79459 -0.775117 0.814688
upperback 1.57793 -1.15897 1.71876
thorax 4.33975 -0.577839 1.22056
lowerneck -13.2963 -0.384651 -2.65745
upperneck 5.31077 -0.165881 1.25051
head 4.16633 -0.0783892 0.891089
rclavicle -6.70898e-015 3.18055e-015
rhumerus -25.7156 -21.7311 -78.7728
rradius 24.4748
rwrist 34.2834
rhand -16.975 -27.2298
rfingers 7.12502
rthumb 9.25947 -57.0064
lclavicle -6.70898e-015 3.18055e-015
lhumerus -23.197 -0.0412463 89.3724
lradius 18.5961
lwrist 1.42688
lhand -24.3047 -3.1357
lfingers 7.12502
lthumb 2.18308 26.8329
rfemur -10.9183 -3.86901 20.3973
rtibia 19.0425
rfoot -13.1308 -1.62311
rtoes 4.3227
lfemur -9.21858 8.34341 -17.1431
ltibia 15.4258
lfoot -10.4191 3.6333
ltoes -8.05806
20
root 0.395113 17.5601 -13.8586 5.67625 0.511416 -1.67973
lowerback -4.79224 -0.769627 0.808409
upperback 1.57234 -1.15127 1.72367
thorax 4.33271 -0.574265 1.22988
lowerneck -13.2875 -0.377209 -2.65391
upperneck 5.24597 -0.157046 1.25512
head 4.14093 -0.0733384 0.892237
rclavicle -4.91992e-015 -2.78299e-015
rhumerus -25.698 -21.7305 -78.7599
rradius 24.4731
rwrist 34.2888
rhand -16.9984 -27.2273
rfingers 7.12502
rthumb 9.23686 -57.005
lclavicle -4.91992e-015 -2.78299e-015
lhumerus -23.2249 -0.110646 89.4023
lradius 18.6202
lwrist 1.47125
lhand -24.2856 -3.14829
lfingers 7.12502
lthumb 2.20153 26.8201
rfemur -10.9174 -3.86105 20.3857
rtibia 19.042
rfoot -13.1294 -1.63075
rtoes 4.31194
lfemur -9.2214 8.35389 -17.1542
ltibia 15.4319
lfoot -10.4256 3.61167
ltoes -8.01079
21
root 0.397382 17.56 -13.8593 5.67637 0.51024 -1.67893
lowerback -4.79158 -0.763411 0.803931
upperback 1.56598 -1.14272 1.72806
thorax 4.32577 -0.570204 1.23769
lowerneck -13.281 -0.373928 -2.6561
upperneck 5.19083 -0.153341 1.26666
head 4.11971 -0.0706429 0.896454
rclavicle -4.37326e-015 -2.78299e-015
rhumerus -25.677 -21.7391 -78.7479
rradius 24.4658
rwrist 34.303
rhand -17.0198 -27.2219
rfingers 7.12502
rthumb 9.21624 -57.0005
lclavicle -4.37326e-015 -2.78299e-015
lhumerus -23.2522 -0.180016 89.4311
lradius 18.6512
lwrist 1.5093
lhand -24.2527 -3.13762
lfingers 7.12502
lthumb 2.23331 26.8304
rfemur -10.9189 -3.85095 20.3761
rtibia 19.0395
rfoot -13.1269 -1.63903
rtoes 4.30039
lfemur -9.22842 8.36434 -17.1637
ltibia 15.4396
lfoot -10.4335 3.58978
ltoes -7.96227
22
root 0.399654 17.5599 -13.8601 5.67792 0.509829 -1.67839
lowerback -4.79383 -0.75753 0.800199
upperback 1.56056 -1.1347 1.73146
thorax 4.32143 -0.56637 1.24398
lowerneck -13.279 -0.373244 -2.66214
upperneck 5.1445 -0.152687 1.2823
head 4.10272 -0.0693726 0.902604
rclavicle 5.81445e-015 -1.23246e-014
rhumerus -25.6502 -21.7523 -78.7393
rradius 24.4517
rwrist 34.3245
rhand -17.0421 -27.2118
rfingers 7.12502
rthumb 9.19476 -56.9913
lclavicle 5.81445e-015 -1.23246e-014
lhumerus -23.275 -0.2568 89.4606
lradius 18.6851
lwrist 1.54985
lhand -24.2182 -3.10984
lfingers 7.12502
lthumb 2.26661 26.8579
rfemur -10.9208 -3.84056 20.3669
rtibia 19.0353
rfoot -13.1236 -1.64816
rtoes 4.28912
lfemur -9.23735 8.37328 -17.1727
ltibia 15.4481
lfoot -10.4423 3.56505
ltoes -7.90745
23
root 0.401981 17.5599 -13.8608 5.67841 0.507538 -1.67681
lowerback -4.79839 -0.75115 0.795867
upperback 1.55641 -1.12598 1.73335
thorax 4.31967 -0.562181 1.24906
lowerneck -13.278 -0.376316 -2.6697
upperneck 5.10652 -0.15691 1.29953
head 4.08906 -0.0705108 0.909247
rclavicle 6.31141e-015 -1.31198e-014
rhumerus -25.6213 -21.7715 -78.7327
rradius 24.4344
rwrist 34.3524
rhand -17.0614 -27.1941
rfingers 7.12502
rthumb 9.17609 -56.9744
lclavicle 6.31141e-015 -1.31198e-014
lhumerus -23.2937 -0.338255 89.4902
lradius 18.7193
lwrist 1.59112
lhand -24.1942 -3.08389
lfingers 7.12502
lthumb 2.28984 26.8836
rfemur -10.9208 -3.83061 20.3561
rtibia 19.0302
rfoot -13.12 -1.6552
rtoes 4.2742
lfemur -9.24384 8.38386 -17.1831
ltibia 15.4557
lfoot -10.4517 3.53928
ltoes -7.85434
24
root 0.404374 17.5598 -13.8615 5.6779 0.506925 -1.67708
lowerback -4.80331 -0.745581 0.794409
upperback 1.55273 -1.11853 1.7347
thorax 4.31857 -0.558533 1.25186
lowerneck -13.2779 -0.380481 -2.67231
upperneck 5.07251 -0.162953 1.31141
head 4.07701 -0.072737 0.913063
rclavicle 3.13086e-015 0
rhumerus -25.5922 -21.7832 -78.7321
rradius 24.4199
rwrist 34.3728
rhand -17.0772 -27.1777
rfingers 7.12502
rthumb 9.16083 -56.9587
lclavicle 3.13086e-015 0
lhumerus -23.3059 -0.439844 89.5236
lradius 18.7477
lwrist 1.65357
lhand -24.1768 -3.04914
lfingers 7.12502
lthumb 2.30659 26.9181
rfemur -10.919 -3.81987 20.3469
rtibia 19.0249
rfoot -13.1159 -1.66379
rtoes 4.26063
lfemur -9.24863 8.39467 -17.1915
ltibia 15.462
lfoot -10.4609 3.50992
ltoes -7.79727
25
root 0.40685 17.5598 -13.8622 5.67488 0.506963 -1.6779
lowerback -4.80896 -0.741381 0.793692
upperback 1.55078 -1.113 1.73614
thorax 4.3197 -0.555825 1.25417
lowerneck -13.2824 -0.382973 -2.67039
upperneck 5.04253 -0.16691 1.31737
head 4.06723 -0.0741534 0.91426
rclavicle -1.88845e-015 -1.07344e-014
rhumerus -25.5605 -21.7905 -78.736
rradius 24.406
rwrist 34.3891
rhand -17.0896 -27.1625
rfingers 7.12502
rthumb 9.14887 -56.944
lclavicle -1.88845e-015 -1.07344e-014
lhumerus -23.3112 -0.546432 89.5582
lradius 18.7699
lwrist 1.72537
lhand -24.169 -3.02474
lfingers 7.12502
lthumb 2.31417 26.9425
rfemur -10.9136 -3.81131 20.3378
rtibia 19.0195
rfoot -13.1124 -1.67099
rtoes 4.24197
lfemur -9.24983 8.40445 -17.1992
ltibia 15.4676
lfoot -10.4698 3.47933
ltoes -7.73403
26
root 0.40943 17.5597 -13.8629 5.67119 0.504547 -1.67965
lowerback -4.81333 -0.737133 0.794105
upperback 1.54698 -1.10742 1.73762
thorax 4.31815 -0.553061 1.25591
lowerneck -13.2782 -0.382898 -2.65994
upperneck 5.00684 -0.16824 1.31311
head 4.05349 -0.0746002 0.910557
rclavicle -1.20762e-014 1.19271e-015
rhumerus -25.5337 -21.79 -78.7427
rradius 24.3967
rwrist 34.3959
rhand -17.093 -27.1506
rfingers 7.12502
rthumb 9.14562 -56.9323
lclavicle -1.20762e-014 1.19271e-015
lhumerus -23.3179 -0.655762 89.5931
lradius 18.7904
lwrist 1.80431
lhand -24.1755 -3.02008
lfingers 7.12502
lthumb 2.30782 26.9472
rfemur -10.9072 -3.80207 20.3289
rtibia 19.0135
rfoot -13.1083 -1.67553
rtoes 4.22887
lfemur -9.24993 8.41518 -17.2066
ltibia 15.4731
lfoot -10.4785 3.45025
ltoes -7.67346
27
root 0.41199 17.5596 -13.8637 5.66699 0.504287 -1.68414
lowerback -4.81549 -0.733724 0.79622
upperback 1.54196 -1.10305 1.74007
thorax 4.3141 -0.550863 1.25761
lowerneck -13.2755 -0.381139 -2.64213
upperneck 4.97277 -0.167857 1.30076
head 4.0405 -0.074463 0.902931
rclavicle 4.77083e-015 -1.39149e-014
rhumerus -25.5086 -21.7791 -78.7535
rradius 24.3905
rwrist 34.3896
rhand -17.0918 -27.1472
rfingers 7.12502
rthumb 9.14675 -56.9288
lclavicle 4.77083e-015 -1.39149e-014
lhumerus -23.324 -0.760379 89.6267
lradius 18.8089
lwrist 1.88464
lhand -24.1864 -3.0298
lfingers 7.12502
lthumb 2.29734 26.9376
rfemur -10.8999 -3.79244 20.3233
rtibia 19.0067
rfoot -13.1043 -1.68195
rtoes 4.21832
lfemur -9.25099 8.4271 -17.2111
ltibia 15.4797
lfoot -10.488 3.41889
ltoes -7.61768
28
root 0.414546 17.5595 -13.8645 5.6619 0.503648 -1.68989
lowerback -4.81486 -0.72978 0.799239
upperback 1.53538 -1.09793 1.74257
thorax 4.30681 -0.548275 1.25898
lowerneck -13.2672 -0.378611 -2.62129
upperneck 4.93427 -0.166804 1.28488
head 4.02475 -0.0740994 0.893558
rclavicle 1.0138e-014 1.15295e-014
rhumerus -25.4844 -21.7728 -78.7632
rradius 24.3773
rwrist 34.3922
rhand -17.0972 -27.1357
rfingers 7.12502
rthumb 9.14154 -56.9176
lclavicle 1.0138e-014 1.15295e-014
lhumerus -23.3311 -0.863682 89.6598
lradius 18.828
lwrist 1.96887
lhand -24.202 -3.04337
lfingers 7.12502
lthumb 2.28224 26.9242
rfemur -10.8918 -3.78134 20.3191
rtibia 18.999
rfoot -13.0998 -1.68992
rtoes 4.21182
lfemur -9.25225 8.43862 -17.2141
ltibia 15.4877
lfoot -10.497 3.39032
ltoes -7.5731
29
root 0.417028 17.5592 -13.8655 5.65555 0.501391 -1.698
lowerback -4.81293 -0.724642 0.804058
upperback 1.52875 -1.09131 1.74497
thorax 4.29868 -0.54489 1.25936
lowerneck -13.2512 -0.378212 -2.60277
upperneck 4.89184 -0.168545 1.27084
head 4.00616 -0.0750689 0.884963
rclavicle -9.93923e-017 6.36111e-015
rhumerus -25.4616 -21.7642 -78.7752
rradius 24.3649
rwrist 34.3953
rhand -17.0998 -27.1281
rfingers 7.12502
rthumb 9.13909 -56.9101
lclavicle -9.93923e-017 6.36111e-015
lhumerus -23.3399 -0.956668 89.689
lradius 18.8509
lwrist 2.04621
lhand -24.2222 -3.06589
lfingers 7.12502
lthumb 2.26276 26.9019
rfemur -10.8828 -3.76392 20.3177
rtibia 18.9909
rfoot -13.096 -1.70101
rtoes 4.22313
lfemur -9.25344 8.453 -17.2142
ltibia 15.4972
lfoot -10.5068 3.36232
ltoes -7.53749
30
root 0.419445 17.559 -13.8665 5.64802 0.501298 -1.70566
lowerback -4.81073 -0.719732 0.808481
upperback 1.52197 -1.08491 1.7464
thorax 4.29022 -0.541615 1.25895
lowerneck -13.2251 -0.379999 -2.58979
upperneck 4.84369 -0.17301 1.26268
head 3.98363 -0.0771959 0.879078
rclavicle 6.01324e-015 -1.35174e-014
rhumerus -25.4421 -21.7459 -78.7909
rradius 24.3562
rwrist 34.3941
rhand -17.1023 -27.1174
rfingers 7.12502
rthumb 9.13658 -56.8995
lclavicle 6.01324e-015 -1.35174e-014
lhumerus -23.3496 -1.04088 89.714
lradius 18.8766
lwrist 2.11708
lhand -24.2351 -3.07877
lfingers 7.12502
lthumb 2.25032 26.8891
rfemur -10.8722 -3.74295 20.3158
rtibia 18.9832
rfoot -13.0925 -1.71718
rtoes 4.24534
lfemur -9.25462 8.46832 -17.2142
ltibia 15.5077
lfoot -10.5178 3.33158
ltoes -7.50623
31
root 0.421828 17.5587 -13.8675 5.63911 0.501168 -1.71236
lowerback -4.80972 -0.713964 0.813403
upperback 1.51718 -1.07738 1.74577
thorax 4.28445 -0.537734 1.2562
lowerneck -13.1966 -0.382877 -2.58036
upperneck 4.79134 -0.178866 1.26042
head 3.95922 -0.0797714 0.875696
rclavicle -4.96962e-016 -1.59028e-015
rhumerus -25.4304 -21.7056 -78.8156
rradius 24.3655
rwrist 34.3732
rhand -17.1013 -27.1084
rfingers 7.12502
rthumb 9.13757 -56.8904
lclavicle -4.96962e-016 -1.59028e-015
lhumerus -23.3556 -1.11441 89.7334
lradius 18.9026
lwrist 2.1773
lhand -24.2434 -3.08601
lfingers 7.12502
lthumb 2.24234 26.882
rfemur -10.8603 -3.72121 20.3129
rtibia 18.9759
rfoot -13.09 -1.73326
rtoes 4.27728
lfemur -9.2548 8.48462 -17.215
ltibia 15.5187
lfoot -10.529 3.30119
ltoes -7.48111
